<mxfile host="app.diagrams.net" modified="2024-06-04T11:39:27.207Z" agent="Mozilla/5.0 (Macintosh; Intel Mac OS X 10_15_7) AppleWebKit/537.36 (KHTML, like Gecko) Chrome/125.0.0.0 Safari/537.36" etag="l6LMC4iMgRkCKi0HDcPs" version="24.4.9" type="device">
  <diagram name="Seite-1" id="DJIM9SjTW6uoAVQXRZdD">
    <mxGraphModel dx="1434" dy="786" grid="1" gridSize="10" guides="1" tooltips="1" connect="1" arrows="1" fold="1" page="1" pageScale="1" pageWidth="827" pageHeight="1169" math="0" shadow="0">
      <root>
        <mxCell id="0" />
        <mxCell id="1" parent="0" />
        <mxCell id="10Cf5z64vkOLvICK_RP--1" value="" style="rounded=0;whiteSpace=wrap;html=1;" vertex="1" parent="1">
          <mxGeometry x="100" y="240" width="640" height="180" as="geometry" />
        </mxCell>
        <mxCell id="10Cf5z64vkOLvICK_RP--2" value="Cluster" style="text;html=1;align=center;verticalAlign=middle;resizable=0;points=[];autosize=1;strokeColor=none;fillColor=none;fontSize=16;fontStyle=1" vertex="1" parent="1">
          <mxGeometry x="370" y="250" width="70" height="30" as="geometry" />
        </mxCell>
        <mxCell id="10Cf5z64vkOLvICK_RP--6" value="" style="edgeStyle=orthogonalEdgeStyle;rounded=0;orthogonalLoop=1;jettySize=auto;html=1;" edge="1" parent="1" source="10Cf5z64vkOLvICK_RP--4" target="10Cf5z64vkOLvICK_RP--5">
          <mxGeometry relative="1" as="geometry" />
        </mxCell>
        <mxCell id="10Cf5z64vkOLvICK_RP--4" value="An interested&lt;div&gt;person&lt;/div&gt;" style="shape=umlActor;verticalLabelPosition=bottom;verticalAlign=top;html=1;outlineConnect=0;" vertex="1" parent="1">
          <mxGeometry x="140" y="300" width="30" height="60" as="geometry" />
        </mxCell>
        <mxCell id="10Cf5z64vkOLvICK_RP--9" style="edgeStyle=orthogonalEdgeStyle;rounded=0;orthogonalLoop=1;jettySize=auto;html=1;exitX=1;exitY=0.5;exitDx=0;exitDy=0;entryX=0;entryY=0.5;entryDx=0;entryDy=0;" edge="1" parent="1" source="10Cf5z64vkOLvICK_RP--5" target="10Cf5z64vkOLvICK_RP--7">
          <mxGeometry relative="1" as="geometry" />
        </mxCell>
        <mxCell id="10Cf5z64vkOLvICK_RP--10" style="edgeStyle=orthogonalEdgeStyle;rounded=0;orthogonalLoop=1;jettySize=auto;html=1;exitX=1;exitY=0.5;exitDx=0;exitDy=0;entryX=0;entryY=0.5;entryDx=0;entryDy=0;" edge="1" parent="1" source="10Cf5z64vkOLvICK_RP--5" target="10Cf5z64vkOLvICK_RP--8">
          <mxGeometry relative="1" as="geometry" />
        </mxCell>
        <mxCell id="10Cf5z64vkOLvICK_RP--5" value="Job" style="ellipse;whiteSpace=wrap;html=1;aspect=fixed;" vertex="1" parent="1">
          <mxGeometry x="230" y="305" width="50" height="50" as="geometry" />
        </mxCell>
        <mxCell id="10Cf5z64vkOLvICK_RP--12" style="edgeStyle=orthogonalEdgeStyle;rounded=0;orthogonalLoop=1;jettySize=auto;html=1;exitX=1;exitY=0.5;exitDx=0;exitDy=0;entryX=0;entryY=0.5;entryDx=0;entryDy=0;" edge="1" parent="1" source="10Cf5z64vkOLvICK_RP--7" target="10Cf5z64vkOLvICK_RP--11">
          <mxGeometry relative="1" as="geometry" />
        </mxCell>
        <mxCell id="10Cf5z64vkOLvICK_RP--7" value="srun ... enroot start -c config.sh" style="rounded=0;whiteSpace=wrap;html=1;" vertex="1" parent="1">
          <mxGeometry x="318" y="300" width="191" height="20" as="geometry" />
        </mxCell>
        <mxCell id="10Cf5z64vkOLvICK_RP--13" style="edgeStyle=orthogonalEdgeStyle;rounded=0;orthogonalLoop=1;jettySize=auto;html=1;exitX=1;exitY=0.5;exitDx=0;exitDy=0;entryX=0;entryY=0.5;entryDx=0;entryDy=0;" edge="1" parent="1" source="10Cf5z64vkOLvICK_RP--8" target="10Cf5z64vkOLvICK_RP--11">
          <mxGeometry relative="1" as="geometry" />
        </mxCell>
        <mxCell id="10Cf5z64vkOLvICK_RP--8" value="srun --container_image=smth ..." style="rounded=0;whiteSpace=wrap;html=1;" vertex="1" parent="1">
          <mxGeometry x="318.5" y="340" width="191" height="20" as="geometry" />
        </mxCell>
        <mxCell id="10Cf5z64vkOLvICK_RP--11" value="Output Files" style="rounded=0;whiteSpace=wrap;html=1;" vertex="1" parent="1">
          <mxGeometry x="570" y="315" width="130" height="30" as="geometry" />
        </mxCell>
      </root>
    </mxGraphModel>
  </diagram>
</mxfile>
